<?xml version="1.0" encoding="utf-8"?>
<!-- Generator: Adobe Illustrator 24.0.1, SVG Export Plug-In . SVG Version: 6.00 Build 0)  -->
<svg version="1.1" id="Layer_1" xmlns="http://www.w3.org/2000/svg" xmlns:xlink="http://www.w3.org/1999/xlink" x="0px" y="0px"
	 viewBox="70 205 436 166" style="enable-background:new 0 0 576 576;" xml:space="preserve">
<style type="text/css">
	.st0{fill-rule:evenodd;clip-rule:evenodd;fill:#27275B;}
	.st1{fill-rule:evenodd;clip-rule:evenodd;fill:#959596;}
	.st2{fill:#27275B;}
</style>
<g>
	<g>
		<g>
			<path class="st0" d="M133.97,279.76c-5.98,0-10.85-4.87-10.85-10.81c0-5.97,4.87-10.85,10.85-10.85
				c5.94,0,10.82,4.88,10.82,10.85C144.79,274.89,139.92,279.76,133.97,279.76L133.97,279.76z"/>
			<path class="st1" d="M133.97,225.7c-3.65,0-6.66-3.01-6.66-6.66c0-3.66,3-6.67,6.66-6.67c3.66,0,6.63,3.01,6.63,6.67
				C140.6,222.68,137.63,225.7,133.97,225.7L133.97,225.7z"/>
			<polygon class="st0" points="117.75,238.56 128.22,227.71 139.99,227.71 150.19,238.56 150.19,252.73 139.23,252.73 
				139.23,238.46 128.57,238.46 128.57,252.73 117.75,252.73 			"/>
			<path class="st1" d="M133.97,312.17c-3.69,0-6.66,3-6.66,6.66c0,3.65,2.97,6.66,6.66,6.66c3.66,0,6.63-3.01,6.63-6.66
				C140.6,315.17,137.63,312.17,133.97,312.17L133.97,312.17z"/>
			<polygon class="st0" points="117.72,299.29 128.22,310.15 139.99,310.15 150.16,299.29 150.16,285.13 139.19,285.13 
				139.23,299.41 128.53,299.44 128.53,285.13 117.72,285.13 			"/>
			<path class="st1" d="M177.23,268.91c0,3.66,2.98,6.67,6.62,6.67c3.7,0,6.67-3.01,6.67-6.67c0-3.66-2.97-6.66-6.67-6.66
				C180.2,262.25,177.23,265.25,177.23,268.91L177.23,268.91z"/>
			<polygon class="st0" points="164.32,285.13 175.17,274.62 175.17,262.85 164.32,252.69 150.16,252.69 150.16,263.62 
				164.44,263.62 164.47,274.31 150.16,274.31 150.16,285.13 			"/>
			<path class="st1" d="M90.72,268.95c0,3.65-3.01,6.66-6.67,6.66c-3.65,0-6.66-3.01-6.66-6.66c0-3.65,3-6.66,6.66-6.66
				C87.71,262.29,90.72,265.29,90.72,268.95L90.72,268.95z"/>
			<polygon class="st0" points="103.59,285.17 92.74,274.66 92.74,262.94 103.59,252.73 117.75,252.73 117.75,263.7 103.47,263.7 
				103.44,274.35 117.75,274.35 117.75,285.17 			"/>
		</g>
		<path class="st2" d="M278.5,282.39L278.5,282.39c0.39,7.84-2.62,14.43-9.02,19.76c-6.36,5.33-14.4,8-24.1,8
			c-11.69,0-20.56-3.51-26.65-10.52c-6.1-6.96-9.14-17.21-9.14-30.69c0-13.44,3.16-23.68,9.45-30.69
			c6.24-7.01,15.38-10.55,27.41-10.55c9.29,0,16.98,2.6,23.03,7.77c5.82,4.91,8.68,10.92,8.64,17.97v1.22l0,0h-16.19l0,0
			c-0.42-4.69-2.1-8.3-5.02-10.85c-2.93-2.59-6.74-3.88-11.53-3.88c-6.36,0-11.23,2.48-14.59,7.39c-3.3,4.94-4.98,12.18-4.98,21.62
			c0,9.49,1.71,16.68,5.1,21.59c3.43,4.95,8.38,7.38,14.84,7.38c4.99,0,8.92-1.37,11.84-4.11c2.89-2.71,4.45-6.52,4.68-11.43l0,0
			H278.5z M292.32,308.51v-79.16l0,0h8.22l0,0h23.42c11.84,0,21.09,3.51,27.75,10.51c6.67,7,9.98,16.71,9.98,29.08
			c0,12.94-3.77,22.77-11.3,29.47c-7.5,6.74-18.54,10.09-33.05,10.09h-16.79l0,0H292.32z M308.77,296.32L308.77,296.32h11.39
			c8.3,0,14.58-2.32,18.88-7c4.3-4.66,6.44-11.43,6.44-20.38c0-8.76-2.24-15.54-6.7-20.29c-4.46-4.72-10.82-7.13-19-7.13h-11.01l0,0
			V296.32z M417.2,251.55L417.2,251.55c-0.12-3.66-1.3-6.52-3.54-8.57c-2.29-2.02-5.41-3.05-9.37-3.05c-3.73,0-6.81,0.95-9.25,2.89
			c-2.47,1.95-3.69,4.35-3.69,7.24c0,2.47,1.14,4.53,3.38,6.17c2.25,1.6,6.36,3.31,12.3,5.14l10.2,3.08
			c6.81,2.06,11.61,4.68,14.43,7.81c2.82,3.12,4.23,7.46,4.23,12.94c0,7.32-2.93,13.29-8.83,17.94c-5.9,4.68-13.48,7.01-22.77,7.01
			c-10.66,0-18.66-2.25-23.91-6.71c-5.1-4.34-7.69-10.85-7.69-19.54v-0.72l0,0h16.22l0,0c-0.24,4.67,1.03,8.3,3.73,10.85
			c2.7,2.59,6.62,3.89,11.65,3.89c4.41,0,8.11-1.07,11.04-3.16c2.89-2.09,4.38-4.76,4.38-7.92c0-2.13-0.92-3.84-2.75-5.22
			c-1.79-1.33-5.06-2.78-9.86-4.23l-10.21-3.08c-7.95-2.44-13.59-5.25-16.87-8.45c-3.27-3.2-4.91-7.46-4.91-12.76
			c0-7.46,2.74-13.51,8.15-18.28c5.45-4.72,12.45-7.12,21.02-7.12c9.59,0,16.95,2.13,22.08,6.32c4.73,3.85,7.13,9.15,7.13,15.77
			l-0.08,1.75l0,0H417.2z M450.44,308.51L450.44,308.51v-79.16l0,0h8.22h8.22l0,0v66.97l0,0h33.24l0,0v6.1v6.09l0,0H450.44z"/>
	</g>
	<g>
		<g>
			<path class="st2" d="M90.13,351.4l0.03,0.08c0.04,1.89-0.62,3.47-1.99,4.73c-1.36,1.27-3.16,1.9-5.4,1.9
				c-2.27,0-4.12-0.81-5.55-2.42c-1.43-1.61-2.15-3.65-2.15-6.13V346c0-2.48,0.71-4.52,2.15-6.13c1.43-1.61,3.28-2.42,5.55-2.42
				c2.27,0,4.08,0.6,5.42,1.81c1.34,1.21,2,2.81,1.96,4.81l-0.03,0.08h-2.61c0-1.41-0.41-2.52-1.24-3.34s-2-1.23-3.51-1.23
				c-1.52,0-2.73,0.61-3.63,1.84c-0.9,1.22-1.35,2.74-1.35,4.55v3.6c0,1.83,0.45,3.36,1.35,4.58c0.9,1.22,2.11,1.83,3.63,1.83
				c1.51,0,2.68-0.4,3.51-1.22s1.24-1.94,1.24-3.37H90.13z"/>
			<path class="st2" d="M92.68,350.22c0-2.21,0.6-4.03,1.8-5.46c1.19-1.43,2.82-2.15,4.87-2.15c2.07,0,3.71,0.71,4.91,2.14
				c1.2,1.43,1.8,3.25,1.8,5.47v0.3c0,2.23-0.6,4.05-1.8,5.46c-1.19,1.42-2.82,2.13-4.88,2.13c-2.06,0-3.69-0.71-4.89-2.13
				c-1.2-1.42-1.8-3.24-1.8-5.46V350.22z M95.4,350.52c0,1.58,0.33,2.89,1,3.92c0.67,1.03,1.66,1.54,2.97,1.54
				c1.3,0,2.28-0.51,2.95-1.54c0.67-1.03,1.01-2.34,1.01-3.92v-0.3c0-1.57-0.34-2.87-1.01-3.91c-0.68-1.04-1.67-1.56-2.98-1.56
				c-1.3,0-2.28,0.52-2.95,1.56c-0.67,1.04-1,2.34-1,3.91V350.52z"/>
			<path class="st2" d="M111.81,342.9l0.19,2.22c0.5-0.79,1.12-1.4,1.87-1.84c0.75-0.44,1.6-0.65,2.56-0.65
				c1.61,0,2.86,0.47,3.74,1.41c0.88,0.94,1.33,2.4,1.33,4.37v9.42h-2.72v-9.37c0-1.32-0.26-2.25-0.78-2.8
				c-0.52-0.55-1.31-0.83-2.38-0.83c-0.84,0-1.55,0.17-2.13,0.5c-0.58,0.34-1.05,0.81-1.39,1.42v11.08h-2.72V342.9H111.81z"/>
			<path class="st2" d="M130.42,353.42l0.23,1.05h0.08l0.26-1.05l3.43-10.53h2.78l-5.49,14.93h-2.06l-5.56-14.93h2.79L130.42,353.42
				z"/>
			<path class="st2" d="M145.84,358.12c-2.14,0-3.82-0.69-5.02-2.06c-1.2-1.37-1.8-3.17-1.8-5.41v-0.61c0-2.14,0.62-3.92,1.86-5.32
				c1.23-1.4,2.75-2.1,4.53-2.1c2,0,3.49,0.62,4.49,1.86c1,1.24,1.5,2.89,1.5,4.95v1.44h-9.55l-0.04,0.07c0,1.5,0.33,2.71,0.99,3.65
				c0.66,0.94,1.67,1.4,3.04,1.4c0.92,0,1.73-0.13,2.42-0.39c0.69-0.26,1.29-0.62,1.79-1.08l1.06,1.77
				c-0.53,0.51-1.24,0.95-2.11,1.3C148.12,357.94,147.07,358.12,145.84,358.12z M145.41,344.76c-0.95,0-1.73,0.37-2.35,1.1
				c-0.62,0.73-1,1.67-1.14,2.81l0.03,0.07h6.73v-0.22c0-1.08-0.27-1.98-0.8-2.69C147.35,345.11,146.52,344.76,145.41,344.76z"/>
			<path class="st2" d="M156.88,342.9l0.19,2.22c0.5-0.79,1.12-1.4,1.87-1.84c0.75-0.44,1.6-0.65,2.56-0.65
				c1.61,0,2.86,0.47,3.74,1.41c0.88,0.94,1.33,2.4,1.33,4.37v9.42h-2.72v-9.37c0-1.32-0.26-2.25-0.78-2.8
				c-0.52-0.55-1.31-0.83-2.38-0.83c-0.84,0-1.55,0.17-2.13,0.5s-1.05,0.81-1.39,1.42v11.08h-2.72V342.9H156.88z"/>
			<path class="st2" d="M173.45,339.07h-2.72v-2.77h2.72V339.07z M173.45,357.82h-2.72V342.9h2.72V357.82z"/>
			<path class="st2" d="M183.81,358.12c-2.14,0-3.82-0.69-5.02-2.06c-1.2-1.37-1.8-3.17-1.8-5.41v-0.61c0-2.14,0.62-3.92,1.86-5.32
				c1.23-1.4,2.75-2.1,4.53-2.1c2,0,3.49,0.62,4.49,1.86c1,1.24,1.5,2.89,1.5,4.95v1.44h-9.55l-0.04,0.07c0,1.5,0.33,2.71,0.99,3.65
				c0.66,0.94,1.67,1.4,3.04,1.4c0.92,0,1.73-0.13,2.42-0.39c0.69-0.26,1.29-0.62,1.79-1.08l1.06,1.77
				c-0.53,0.51-1.24,0.95-2.11,1.3C186.09,357.94,185.04,358.12,183.81,358.12z M183.38,344.76c-0.95,0-1.73,0.37-2.35,1.1
				c-0.62,0.73-1,1.67-1.14,2.81l0.03,0.07h6.73v-0.22c0-1.08-0.27-1.98-0.8-2.69C185.32,345.11,184.5,344.76,183.38,344.76z"/>
			<path class="st2" d="M194.85,342.9l0.19,2.22c0.5-0.79,1.12-1.4,1.87-1.84c0.75-0.44,1.6-0.65,2.56-0.65
				c1.61,0,2.86,0.47,3.74,1.41s1.33,2.4,1.33,4.37v9.42h-2.72v-9.37c0-1.32-0.26-2.25-0.78-2.8c-0.52-0.55-1.31-0.83-2.38-0.83
				c-0.84,0-1.55,0.17-2.13,0.5c-0.58,0.34-1.05,0.81-1.39,1.42v11.08h-2.72V342.9H194.85z"/>
			<path class="st2" d="M212.26,339.29v3.6h2.83v2.01h-2.83v9.06c0,0.7,0.14,1.19,0.43,1.48c0.29,0.29,0.67,0.43,1.15,0.43
				c0.16,0,0.33-0.02,0.52-0.06c0.19-0.04,0.35-0.08,0.49-0.13l0.37,1.86c-0.2,0.17-0.5,0.3-0.9,0.41
				c-0.39,0.11-0.79,0.16-1.17,0.16c-1.11,0-1.98-0.34-2.63-1c-0.65-0.66-0.98-1.71-0.98-3.14v-9.06h-2.37v-2.01h2.37v-3.6H212.26z"
				/>
			<path class="st2" d="M224.94,346.88c0-0.81,0.26-1.47,0.77-1.99c0.51-0.52,1.21-0.77,2.07-0.77c0.87,0,1.57,0.26,2.09,0.77
				c0.52,0.51,0.78,1.17,0.78,1.99v0.83c0,0.82-0.26,1.48-0.77,1.98c-0.51,0.5-1.21,0.75-2.08,0.75s-1.57-0.25-2.08-0.76
				c-0.51-0.51-0.77-1.17-0.77-1.97V346.88z"/>
			<path class="st2" d="M242.01,357.82v-20.09h6.32c2.62,0,4.73,0.81,6.33,2.42c1.6,1.61,2.39,3.7,2.39,6.26v2.74
				c0,2.57-0.8,4.65-2.39,6.26c-1.59,1.6-3.7,2.41-6.33,2.41H242.01z M244.73,339.87v15.83h3.6c1.86,0,3.32-0.61,4.4-1.84
				c1.07-1.22,1.61-2.79,1.61-4.71v-2.77c0-1.9-0.54-3.45-1.61-4.68c-1.07-1.22-2.54-1.84-4.4-1.84H244.73z"/>
			<path class="st2" d="M266.96,358.12c-2.14,0-3.82-0.69-5.02-2.06c-1.2-1.37-1.8-3.17-1.8-5.41v-0.61c0-2.14,0.62-3.92,1.86-5.32
				c1.23-1.4,2.75-2.1,4.53-2.1c2,0,3.49,0.62,4.49,1.86c1,1.24,1.5,2.89,1.5,4.95v1.44h-9.55l-0.04,0.07c0,1.5,0.33,2.71,0.99,3.65
				c0.66,0.94,1.67,1.4,3.04,1.4c0.92,0,1.73-0.13,2.42-0.39c0.69-0.26,1.29-0.62,1.79-1.08l1.06,1.77
				c-0.53,0.51-1.24,0.95-2.11,1.3C269.24,357.94,268.19,358.12,266.96,358.12z M266.53,344.76c-0.95,0-1.73,0.37-2.35,1.1
				c-0.62,0.73-1,1.67-1.14,2.81l0.03,0.07h6.73v-0.22c0-1.08-0.27-1.98-0.8-2.69C268.47,345.11,267.65,344.76,266.53,344.76z"/>
			<path class="st2" d="M288.29,350.93c0,2.15-0.51,3.89-1.54,5.21c-1.03,1.32-2.45,1.98-4.26,1.98c-0.92,0-1.73-0.15-2.42-0.46
				c-0.69-0.31-1.28-0.77-1.77-1.38v7.3h-2.72V342.9h2.08l0.43,1.93c0.49-0.72,1.1-1.26,1.82-1.64c0.73-0.38,1.57-0.56,2.54-0.56
				c1.85,0,3.29,0.73,4.31,2.2c1.03,1.47,1.54,3.41,1.54,5.82V350.93z M285.57,350.64c0-1.69-0.34-3.09-1-4.18
				c-0.67-1.09-1.65-1.64-2.95-1.64c-0.78,0-1.45,0.18-2,0.53c-0.55,0.35-1,0.84-1.34,1.46v7.22c0.34,0.62,0.79,1.1,1.34,1.44
				c0.55,0.34,1.23,0.52,2.03,0.52c1.29,0,2.26-0.47,2.93-1.41c0.66-0.94,0.99-2.16,0.99-3.65V350.64z"/>
			<path class="st2" d="M297.81,358.12c-2.14,0-3.82-0.69-5.02-2.06c-1.2-1.37-1.8-3.17-1.8-5.41v-0.61c0-2.14,0.62-3.92,1.86-5.32
				c1.23-1.4,2.75-2.1,4.53-2.1c2,0,3.49,0.62,4.49,1.86c1,1.24,1.5,2.89,1.5,4.95v1.44h-9.55l-0.04,0.07c0,1.5,0.33,2.71,0.99,3.65
				c0.66,0.94,1.67,1.4,3.04,1.4c0.92,0,1.73-0.13,2.42-0.39c0.69-0.26,1.29-0.62,1.79-1.08l1.06,1.77
				c-0.53,0.51-1.24,0.95-2.11,1.3C300.09,357.94,299.04,358.12,297.81,358.12z M297.38,344.76c-0.95,0-1.73,0.37-2.35,1.1
				c-0.62,0.73-1,1.67-1.14,2.81l0.03,0.07h6.73v-0.22c0-1.08-0.27-1.98-0.8-2.69C299.32,345.11,298.5,344.76,297.38,344.76z"/>
			<path class="st2" d="M308.85,342.9l0.19,2.22c0.49-0.79,1.12-1.4,1.87-1.84c0.75-0.44,1.6-0.65,2.56-0.65
				c1.61,0,2.86,0.47,3.74,1.41s1.33,2.4,1.33,4.37v9.42h-2.72v-9.37c0-1.32-0.26-2.25-0.78-2.8c-0.52-0.55-1.31-0.83-2.38-0.83
				c-0.84,0-1.55,0.17-2.13,0.5s-1.05,0.81-1.39,1.42v11.08h-2.72V342.9H308.85z"/>
			<path class="st2" d="M321.86,350.64c0-2.4,0.51-4.34,1.54-5.81c1.02-1.47,2.46-2.21,4.31-2.21c0.87,0,1.65,0.16,2.32,0.48
				s1.25,0.79,1.73,1.41v-8.21h2.72v21.52h-2.08l-0.41-1.89c-0.49,0.72-1.09,1.26-1.81,1.63c-0.72,0.37-1.55,0.55-2.5,0.55
				c-1.82,0-3.25-0.66-4.28-1.98c-1.03-1.32-1.54-3.06-1.54-5.21V350.64z M324.58,350.93c0,1.51,0.31,2.72,0.92,3.62
				c0.62,0.91,1.57,1.36,2.87,1.36c0.81,0,1.49-0.18,2.04-0.55c0.55-0.37,1-0.88,1.35-1.54v-6.97c-0.35-0.62-0.8-1.11-1.36-1.47
				c-0.56-0.36-1.23-0.55-2.01-0.55c-1.31,0-2.27,0.54-2.89,1.62c-0.62,1.07-0.93,2.48-0.93,4.2V350.93z"/>
			<path class="st2" d="M347.72,357.82c-0.09-0.45-0.17-0.85-0.22-1.19c-0.05-0.34-0.08-0.69-0.09-1.04
				c-0.51,0.72-1.17,1.32-1.98,1.8c-0.81,0.48-1.69,0.72-2.63,0.72c-1.56,0-2.74-0.4-3.55-1.19c-0.81-0.8-1.22-1.89-1.22-3.29
				c0-1.43,0.58-2.54,1.73-3.35c1.15-0.81,2.72-1.21,4.7-1.21h2.95v-1.48c0-0.87-0.27-1.57-0.8-2.08c-0.53-0.51-1.29-0.77-2.26-0.77
				c-0.88,0-1.59,0.22-2.14,0.66c-0.54,0.44-0.81,0.97-0.81,1.59l-2.58,0.03l-0.03-0.08c-0.07-1.09,0.44-2.08,1.53-2.98
				c1.08-0.9,2.48-1.35,4.19-1.35c1.69,0,3.05,0.43,4.09,1.29c1.03,0.86,1.54,2.1,1.54,3.72v7.19c0,0.53,0.03,1.05,0.08,1.54
				c0.05,0.5,0.16,0.99,0.3,1.46H347.72z M343.21,355.84c0.99,0,1.87-0.25,2.66-0.76c0.79-0.51,1.31-1.09,1.55-1.74v-2.43h-3.05
				c-1.09,0-1.97,0.28-2.63,0.83c-0.66,0.55-0.99,1.2-0.99,1.95c0,0.66,0.21,1.19,0.62,1.57
				C341.79,355.64,342.4,355.84,343.21,355.84z"/>
			<path class="st2" d="M366.83,350.93c0,2.15-0.52,3.89-1.55,5.21c-1.04,1.32-2.46,1.98-4.27,1.98c-0.99,0-1.86-0.2-2.59-0.59
				c-0.73-0.39-1.34-0.97-1.81-1.73l-0.44,2.03h-2.08V336.3h2.72v8.36c0.47-0.66,1.05-1.17,1.75-1.52c0.69-0.35,1.5-0.52,2.43-0.52
				c1.84,0,3.27,0.74,4.3,2.21c1.03,1.47,1.54,3.41,1.54,5.81V350.93z M364.11,350.64c0-1.71-0.32-3.11-0.95-4.19
				c-0.63-1.08-1.59-1.62-2.88-1.62c-0.84,0-1.54,0.21-2.12,0.61c-0.58,0.41-1.03,0.96-1.38,1.65v6.47
				c0.35,0.74,0.81,1.31,1.38,1.73c0.56,0.41,1.28,0.62,2.14,0.62c1.28,0,2.23-0.45,2.86-1.37s0.94-2.11,0.94-3.62V350.64z"/>
			<path class="st2" d="M373.08,357.82h-2.72V336.3h2.72V357.82z"/>
			<path class="st2" d="M383.44,358.12c-2.14,0-3.82-0.69-5.02-2.06c-1.2-1.37-1.8-3.17-1.8-5.41v-0.61c0-2.14,0.62-3.92,1.86-5.32
				c1.23-1.4,2.75-2.1,4.53-2.1c2,0,3.49,0.62,4.49,1.86c1,1.24,1.5,2.89,1.5,4.95v1.44h-9.55l-0.04,0.07c0,1.5,0.33,2.71,0.99,3.65
				c0.66,0.94,1.67,1.4,3.04,1.4c0.92,0,1.73-0.13,2.42-0.39c0.69-0.26,1.29-0.62,1.79-1.08l1.06,1.77
				c-0.53,0.51-1.24,0.95-2.11,1.3C385.73,357.94,384.68,358.12,383.44,358.12z M383.01,344.76c-0.95,0-1.73,0.37-2.35,1.1
				c-0.62,0.73-1,1.67-1.14,2.81l0.03,0.07h6.73v-0.22c0-1.08-0.27-1.98-0.8-2.69C384.95,345.11,384.13,344.76,383.01,344.76z"/>
			<path class="st2" d="M398.99,346.88c0-0.81,0.26-1.47,0.77-1.99c0.51-0.52,1.21-0.77,2.07-0.77c0.87,0,1.57,0.26,2.09,0.77
				c0.52,0.51,0.78,1.17,0.78,1.99v0.83c0,0.82-0.26,1.48-0.77,1.98c-0.51,0.5-1.21,0.75-2.08,0.75s-1.57-0.25-2.08-0.76
				c-0.51-0.51-0.77-1.17-0.77-1.97V346.88z"/>
			<path class="st2" d="M426.77,352.76c0-0.91-0.33-1.67-0.98-2.29c-0.65-0.62-1.8-1.14-3.45-1.57c-2.04-0.51-3.64-1.25-4.78-2.24
				c-1.15-0.98-1.72-2.22-1.72-3.71c0-1.58,0.62-2.89,1.85-3.94c1.23-1.05,2.84-1.57,4.8-1.57c2.11,0,3.8,0.6,5.06,1.8
				c1.26,1.2,1.86,2.6,1.83,4.2l-0.04,0.08h-2.59c0-1.14-0.4-2.09-1.19-2.83c-0.8-0.75-1.82-1.12-3.06-1.12
				c-1.27,0-2.24,0.31-2.92,0.92c-0.68,0.62-1.02,1.42-1.02,2.4c0,0.87,0.37,1.6,1.11,2.19c0.74,0.59,1.95,1.1,3.61,1.54
				c2.02,0.53,3.57,1.3,4.62,2.32c1.06,1.02,1.59,2.28,1.59,3.78c0,1.62-0.64,2.92-1.91,3.9c-1.28,0.99-2.94,1.48-4.99,1.48
				c-1.94,0-3.66-0.54-5.14-1.63c-1.49-1.08-2.21-2.54-2.16-4.36l0.03-0.08h2.59c0,1.26,0.48,2.23,1.43,2.92
				c0.96,0.69,2.04,1.03,3.24,1.03c1.29,0,2.31-0.29,3.05-0.87C426.39,354.54,426.77,353.75,426.77,352.76z"/>
			<path class="st2" d="M439.15,358.12c-2.14,0-3.82-0.69-5.02-2.06c-1.2-1.37-1.8-3.17-1.8-5.41v-0.61c0-2.14,0.62-3.92,1.86-5.32
				c1.23-1.4,2.75-2.1,4.53-2.1c2,0,3.49,0.62,4.49,1.86c1,1.24,1.5,2.89,1.5,4.95v1.44h-9.55l-0.04,0.07c0,1.5,0.33,2.71,0.99,3.65
				c0.66,0.94,1.67,1.4,3.04,1.4c0.92,0,1.73-0.13,2.42-0.39c0.69-0.26,1.29-0.62,1.79-1.08l1.06,1.77
				c-0.53,0.51-1.24,0.95-2.11,1.3C441.43,357.94,440.38,358.12,439.15,358.12z M438.72,344.76c-0.95,0-1.73,0.37-2.35,1.1
				c-0.62,0.73-1,1.67-1.14,2.81l0.03,0.07h6.73v-0.22c0-1.08-0.27-1.98-0.8-2.69C440.65,345.11,439.83,344.76,438.72,344.76z"/>
			<path class="st2" d="M453.69,355.99c0.84,0,1.57-0.28,2.19-0.83c0.63-0.56,0.94-1.24,0.94-2.05h2.46l0.04,0.08
				c0.03,1.29-0.52,2.43-1.66,3.43c-1.14,1-2.47,1.5-3.97,1.5c-2.1,0-3.72-0.71-4.86-2.14s-1.71-3.2-1.71-5.33v-0.58
				c0-2.11,0.57-3.88,1.72-5.3c1.14-1.43,2.76-2.15,4.85-2.15c1.66,0,3.03,0.51,4.09,1.54c1.07,1.03,1.58,2.3,1.54,3.79l-0.03,0.08
				h-2.47c0-0.91-0.29-1.69-0.89-2.32c-0.59-0.64-1.34-0.96-2.24-0.96c-1.33,0-2.31,0.52-2.92,1.55c-0.61,1.03-0.92,2.29-0.92,3.76
				v0.58c0,1.5,0.3,2.76,0.91,3.79C451.36,355.47,452.34,355.99,453.69,355.99z"/>
			<path class="st2" d="M472.03,355.62c-0.47,0.8-1.07,1.42-1.8,1.85c-0.74,0.43-1.59,0.65-2.55,0.65c-1.63,0-2.9-0.52-3.81-1.56
				c-0.91-1.04-1.37-2.66-1.37-4.86v-8.8h2.72v8.83c0,1.59,0.23,2.68,0.7,3.28c0.47,0.6,1.2,0.9,2.2,0.9c0.96,0,1.76-0.19,2.39-0.59
				s1.11-0.95,1.43-1.66V342.9h2.72v14.93h-2.44L472.03,355.62z"/>
			<path class="st2" d="M485.68,345.3l-1.39-0.08c-0.72,0-1.32,0.17-1.81,0.51c-0.49,0.34-0.87,0.82-1.14,1.43v10.66h-2.72V342.9
				h2.43l0.26,2.18c0.42-0.77,0.94-1.38,1.56-1.81c0.62-0.43,1.34-0.65,2.15-0.65c0.2,0,0.4,0.02,0.58,0.05
				c0.18,0.03,0.34,0.07,0.46,0.1L485.68,345.3z"/>
			<path class="st2" d="M494.68,358.12c-2.14,0-3.82-0.69-5.02-2.06c-1.2-1.37-1.8-3.17-1.8-5.41v-0.61c0-2.14,0.62-3.92,1.86-5.32
				c1.23-1.4,2.75-2.1,4.53-2.1c2,0,3.49,0.62,4.49,1.86c1,1.24,1.5,2.89,1.5,4.95v1.44h-9.55l-0.04,0.07c0,1.5,0.33,2.71,0.99,3.65
				c0.66,0.94,1.67,1.4,3.04,1.4c0.92,0,1.73-0.13,2.42-0.39c0.69-0.26,1.29-0.62,1.79-1.08l1.06,1.77
				c-0.53,0.51-1.24,0.95-2.11,1.3C496.97,357.94,495.92,358.12,494.68,358.12z M494.25,344.76c-0.95,0-1.73,0.37-2.35,1.1
				c-0.62,0.73-1,1.67-1.14,2.81l0.03,0.07h6.73v-0.22c0-1.08-0.27-1.98-0.8-2.69C496.19,345.11,495.37,344.76,494.25,344.76z"/>
		</g>
	</g>
</g>
</svg>
